<?xml version="1.0" encoding="UTF-8"?>
<svg xmlns="http://www.w3.org/2000/svg" xmlns:xlink="http://www.w3.org/1999/xlink" width="1000" height="546.230641" viewBox="0 0 1000 546.230641">
<path fill-rule="nonzero" fill="rgb(100%, 100%, 100%)" fill-opacity="1" stroke-width="0.3985" stroke-linecap="butt" stroke-linejoin="miter" stroke="rgb(0%, 0%, 0%)" stroke-opacity="1" stroke-miterlimit="10" d="M -63.780434 -63.780302 L -63.780434 63.780687 L 170.080616 63.780687 L 170.080616 -63.780302 Z M -63.780434 -63.780302 " transform="matrix(4.268761, 0, 0, -4.268761, 273.11107, 273.12387)"/>
<path fill="none" stroke-width="0.3985" stroke-linecap="butt" stroke-linejoin="miter" stroke="rgb(0%, 0%, 0%)" stroke-opacity="1" stroke-miterlimit="10" d="M 42.520542 -0.000264816 C 42.520542 23.483387 23.483255 42.51976 -0.000397144 42.51976 C -23.483134 42.51976 -42.520422 23.483387 -42.520422 -0.000264816 C -42.520422 -23.483917 -23.483134 -42.520289 -0.000397144 -42.520289 C 23.483255 -42.520289 42.520542 -23.483917 42.520542 -0.000264816 Z M 148.820604 -0.000264816 C 148.820604 23.483387 129.784231 42.51976 106.300579 42.51976 C 82.816927 42.51976 63.780555 23.483387 63.780555 -0.000264816 C 63.780555 -23.483917 82.816927 -42.520289 106.300579 -42.520289 C 129.784231 -42.520289 148.820604 -23.483917 148.820604 -0.000264816 Z M 148.820604 -0.000264816 " transform="matrix(4.268761, 0, 0, -4.268761, 273.11107, 273.12387)"/>
<path fill-rule="nonzero" fill="rgb(0%, 0%, 0%)" fill-opacity="1" d="M 264.765625 282.75 C 263.066406 285.601562 261.414062 286.203125 259.566406 286.351562 C 259.015625 286.351562 258.664062 286.351562 258.664062 287.203125 C 258.664062 287.453125 258.863281 287.652344 259.214844 287.652344 C 260.363281 287.652344 261.664062 287.503906 262.867188 287.503906 C 264.265625 287.503906 265.769531 287.652344 267.117188 287.652344 C 267.367188 287.652344 267.917969 287.652344 267.917969 286.851562 C 267.917969 286.351562 267.519531 286.351562 267.21875 286.351562 C 266.269531 286.253906 265.269531 285.902344 265.269531 284.851562 C 265.269531 284.351562 265.519531 283.851562 265.816406 283.25 L 269.070312 277.847656 L 279.726562 277.847656 C 279.824219 278.699219 280.425781 284.503906 280.425781 284.953125 C 280.425781 286.203125 278.222656 286.351562 277.375 286.351562 C 276.773438 286.351562 276.324219 286.351562 276.324219 287.203125 C 276.324219 287.652344 276.875 287.652344 276.921875 287.652344 C 278.675781 287.652344 280.523438 287.503906 282.277344 287.503906 C 283.328125 287.503906 285.976562 287.652344 287.078125 287.652344 C 287.328125 287.652344 287.828125 287.652344 287.828125 286.804688 C 287.828125 286.351562 287.378906 286.351562 286.828125 286.351562 C 284.226562 286.351562 284.226562 286.054688 284.078125 284.800781 L 281.476562 258.238281 C 281.425781 257.390625 281.425781 257.1875 280.675781 257.1875 C 279.976562 257.1875 279.824219 257.488281 279.574219 257.9375 Z M 269.871094 276.5 L 278.273438 262.492188 L 279.625 276.5 Z M 269.871094 276.5 "/>
<path fill-rule="nonzero" fill="rgb(0%, 0%, 0%)" fill-opacity="1" d="M 716.488281 284.351562 C 716.089844 286.003906 715.988281 286.351562 712.636719 286.351562 C 711.886719 286.351562 711.488281 286.351562 711.488281 287.203125 C 711.488281 287.652344 711.835938 287.652344 712.636719 287.652344 L 727.792969 287.652344 C 734.496094 287.652344 739.550781 282.652344 739.550781 278.449219 C 739.550781 275.398438 737.050781 272.945312 732.945312 272.496094 C 737.347656 271.644531 741.851562 268.496094 741.851562 264.492188 C 741.851562 261.339844 739.050781 258.589844 733.949219 258.589844 L 719.640625 258.589844 C 718.839844 258.589844 718.390625 258.589844 718.390625 259.441406 C 718.390625 259.941406 718.789062 259.941406 719.589844 259.941406 C 719.691406 259.941406 720.492188 259.941406 721.191406 259.988281 C 721.992188 260.089844 722.34375 260.140625 722.34375 260.691406 C 722.34375 260.839844 722.292969 260.992188 722.191406 261.492188 Z M 722.890625 272.097656 L 725.542969 261.539062 C 725.945312 260.039062 725.992188 259.941406 727.84375 259.941406 L 733.347656 259.941406 C 737.050781 259.941406 737.949219 262.441406 737.949219 264.292969 C 737.949219 268.042969 734.296875 272.097656 729.09375 272.097656 Z M 720.992188 286.351562 C 720.390625 286.351562 720.339844 286.351562 720.039062 286.304688 C 719.640625 286.253906 719.492188 286.203125 719.492188 285.851562 C 719.492188 285.753906 719.492188 285.652344 719.742188 284.902344 L 722.640625 273.046875 L 730.695312 273.046875 C 734.796875 273.046875 735.597656 276.148438 735.597656 278 C 735.597656 282.199219 731.796875 286.351562 726.792969 286.351562 Z M 720.992188 286.351562 "/>
</svg>
