<?xml version="1.0" encoding="UTF-8"?>
<svg xmlns="http://www.w3.org/2000/svg" xmlns:xlink="http://www.w3.org/1999/xlink" width="800" height="800" viewBox="0 0 800 800">
<defs>
<clipPath id="clip-0">
<path clip-rule="nonzero" d="M 1 1 L 799 1 L 799 799 L 1 799 Z M 1 1 "/>
</clipPath>
<clipPath id="clip-1">
<path clip-rule="nonzero" d="M 1.242188 798.761719 L 1.242188 1.261719 L 798.742188 1.261719 L 798.742188 798.761719 Z M 665.828125 400.011719 C 665.828125 253.195312 546.8125 134.179688 399.992188 134.179688 C 253.175781 134.179688 134.160156 253.195312 134.160156 400.011719 C 134.160156 546.832031 253.175781 665.847656 399.992188 665.847656 C 546.8125 665.847656 665.828125 546.832031 665.828125 400.011719 Z M 665.828125 400.011719 "/>
</clipPath>
</defs>
<path fill-rule="nonzero" fill="rgb(100%, 100%, 100%)" fill-opacity="1" stroke-width="0.3985" stroke-linecap="butt" stroke-linejoin="miter" stroke="rgb(0%, 0%, 0%)" stroke-opacity="1" stroke-miterlimit="10" d="M -63.780319 -63.779936 L -63.780319 63.780194 L 63.779811 63.780194 L 63.779811 -63.779936 Z M -63.780319 -63.779936 " transform="matrix(6.251954, 0, 0, -6.251954, 399.993774, 400.012524)"/>
<path fill-rule="nonzero" fill="rgb(0%, 0%, 0%)" fill-opacity="1" d="M 387.773438 414.113281 C 385.28125 418.289062 382.867188 419.167969 380.152344 419.386719 C 379.347656 419.386719 378.835938 419.386719 378.835938 420.632812 C 378.835938 421 379.128906 421.292969 379.640625 421.292969 C 381.324219 421.292969 383.230469 421.070312 384.992188 421.070312 C 387.039062 421.070312 389.242188 421.292969 391.21875 421.292969 C 391.585938 421.292969 392.390625 421.292969 392.390625 420.121094 C 392.390625 419.386719 391.804688 419.386719 391.363281 419.386719 C 389.972656 419.242188 388.507812 418.726562 388.507812 417.191406 C 388.507812 416.457031 388.871094 415.726562 389.3125 414.84375 L 394.074219 406.929688 L 409.679688 406.929688 C 409.824219 408.179688 410.707031 416.679688 410.707031 417.335938 C 410.707031 419.167969 407.480469 419.386719 406.238281 419.386719 C 405.355469 419.386719 404.695312 419.386719 404.695312 420.632812 C 404.695312 421.292969 405.503906 421.292969 405.578125 421.292969 C 408.140625 421.292969 410.851562 421.070312 413.414062 421.070312 C 414.957031 421.070312 418.835938 421.292969 420.449219 421.292969 C 420.816406 421.292969 421.550781 421.292969 421.550781 420.046875 C 421.550781 419.386719 420.890625 419.386719 420.085938 419.386719 C 416.273438 419.386719 416.273438 418.945312 416.054688 417.117188 L 412.242188 378.210938 C 412.171875 376.964844 412.171875 376.675781 411.070312 376.675781 C 410.046875 376.675781 409.824219 377.113281 409.460938 377.773438 Z M 395.246094 404.953125 L 407.554688 384.441406 L 409.535156 404.953125 Z M 395.246094 404.953125 "/>
<path fill="none" stroke-width="0.3985" stroke-linecap="butt" stroke-linejoin="miter" stroke="rgb(0%, 0%, 0%)" stroke-opacity="1" stroke-miterlimit="10" d="M 42.520206 0.000128866 C 42.520206 23.483414 23.483656 42.519964 -0.000253827 42.519964 C -23.483539 42.519964 -42.520089 23.483414 -42.520089 0.000128866 C -42.520089 -23.483781 -23.483539 -42.520331 -0.000253827 -42.520331 C 23.483656 -42.520331 42.520206 -23.483781 42.520206 0.000128866 Z M 42.520206 0.000128866 " transform="matrix(6.251954, 0, 0, -6.251954, 399.993774, 400.012524)"/>
<g clip-path="url(#clip-0)">
<g clip-path="url(#clip-1)">
<path fill-rule="nonzero" fill="rgb(92.156863%, 6.27451%, 6.27451%)" fill-opacity="1" d="M 1.242188 798.761719 L 1.242188 1.261719 L 798.742188 1.261719 L 798.742188 798.761719 Z M 1.242188 798.761719 "/>
</g>
</g>
<path fill-rule="nonzero" fill="rgb(0%, 0%, 0%)" fill-opacity="1" d="M 105.773438 153.195312 C 103.285156 157.371094 100.867188 158.253906 98.15625 158.472656 C 97.351562 158.472656 96.835938 158.472656 96.835938 159.71875 C 96.835938 160.085938 97.132812 160.378906 97.644531 160.378906 C 99.328125 160.378906 101.234375 160.15625 102.992188 160.15625 C 105.042969 160.15625 107.242188 160.378906 109.21875 160.378906 C 109.585938 160.378906 110.390625 160.378906 110.390625 159.207031 C 110.390625 158.472656 109.804688 158.472656 109.367188 158.472656 C 107.976562 158.324219 106.507812 157.8125 106.507812 156.273438 C 106.507812 155.539062 106.875 154.808594 107.316406 153.929688 L 112.078125 146.019531 L 127.679688 146.019531 C 127.828125 147.261719 128.710938 155.761719 128.710938 156.421875 C 128.710938 158.253906 125.484375 158.472656 124.242188 158.472656 C 123.359375 158.472656 122.699219 158.472656 122.699219 159.71875 C 122.699219 160.378906 123.507812 160.378906 123.582031 160.378906 C 126.144531 160.378906 128.855469 160.15625 131.417969 160.15625 C 132.957031 160.15625 136.839844 160.378906 138.453125 160.378906 C 138.820312 160.378906 139.554688 160.378906 139.554688 159.132812 C 139.554688 158.472656 138.894531 158.472656 138.085938 158.472656 C 134.277344 158.472656 134.277344 158.03125 134.054688 156.199219 L 130.246094 117.296875 C 130.175781 116.054688 130.175781 115.757812 129.074219 115.757812 C 128.050781 115.757812 127.828125 116.195312 127.460938 116.859375 Z M 113.25 144.039062 L 125.558594 123.523438 L 127.539062 144.039062 Z M 113.25 144.039062 "/>
<path fill-rule="nonzero" fill="rgb(0%, 0%, 0%)" fill-opacity="1" d="M 166.257812 130.816406 C 166.257812 130.523438 165.820312 130.523438 165.742188 130.523438 C 165.523438 130.523438 163.765625 130.667969 162.152344 132.648438 C 160.25 135.210938 157.757812 136.089844 155.414062 136.089844 C 150.796875 136.089844 146.914062 132.648438 146.914062 126.199219 C 146.914062 122.976562 148.011719 117.992188 151.382812 113.890625 C 153.214844 111.695312 155.925781 109.789062 160.320312 109.789062 C 162.59375 109.789062 163.324219 110.59375 163.324219 112.132812 C 163.324219 113.742188 161.492188 116.746094 161.199219 117.257812 C 161.054688 117.554688 160.980469 117.699219 160.980469 117.917969 C 160.980469 118.210938 161.347656 118.210938 161.492188 118.210938 C 162.300781 118.210938 163.914062 117.40625 164.644531 116.527344 C 164.867188 116.308594 167.429688 112.277344 167.429688 110.152344 C 167.429688 107.148438 164.496094 107.148438 163.472656 107.148438 C 157.902344 107.148438 152.703125 109.714844 148.820312 113.671875 C 145.597656 116.894531 142.8125 122.902344 142.8125 128.179688 C 142.8125 134.550781 146.550781 138.800781 152.261719 138.800781 C 159.882812 138.800781 166.257812 131.839844 166.257812 130.816406 Z M 166.257812 130.816406 "/>
</svg>
