<?xml version="1.0" encoding="UTF-8" standalone="no"?>
<svg
   width="800"
   height="800"
   viewBox="0 0 800 800"
   version="1.1"
   id="svg6"
   sodipodi:docname="containment_venn_diagram.svg"
   inkscape:version="1.3.2 (091e20e, 2023-11-25, custom)"
   xmlns:inkscape="http://www.inkscape.org/namespaces/inkscape"
   xmlns:sodipodi="http://sodipodi.sourceforge.net/DTD/sodipodi-0.dtd"
   xmlns="http://www.w3.org/2000/svg"
   xmlns:svg="http://www.w3.org/2000/svg">
  <defs
     id="defs6" />
  <sodipodi:namedview
     id="namedview6"
     pagecolor="#505050"
     bordercolor="#ffffff"
     borderopacity="1"
     inkscape:showpageshadow="0"
     inkscape:pageopacity="0"
     inkscape:pagecheckerboard="1"
     inkscape:deskcolor="#505050"
     inkscape:zoom="0.71859727"
     inkscape:cx="212.91481"
     inkscape:cy="405.65142"
     inkscape:window-width="1920"
     inkscape:window-height="1009"
     inkscape:window-x="1072"
     inkscape:window-y="468"
     inkscape:window-maximized="1"
     inkscape:current-layer="svg6" />
  <path
     fill="none"
     stroke-width="0.3985"
     stroke-linecap="butt"
     stroke-linejoin="miter"
     stroke="rgb(0%, 0%, 0%)"
     stroke-opacity="1"
     stroke-miterlimit="10"
     d="M -63.780319 -63.779936 L -63.780319 63.780194 L 63.779811 63.780194 L 63.779811 -63.779936 Z M -63.780319 -63.779936 "
     transform="matrix(6.251954, 0, 0, -6.251954, 399.993774, 400.012524)"
     id="path1"
     style="fill:#ffffff;fill-opacity:1" />
  <path
     fill-rule="nonzero"
     fill="rgb(92.156863%, 6.27451%, 6.27451%)"
     fill-opacity="1"
     d="M 665.828125 400.011719 C 665.828125 253.195312 546.8125 134.179688 399.992188 134.179688 C 253.175781 134.179688 134.160156 253.195312 134.160156 400.011719 C 134.160156 546.832031 253.175781 665.847656 399.992188 665.847656 C 546.8125 665.847656 665.828125 546.832031 665.828125 400.011719 Z M 665.828125 400.011719 "
     id="path2" />
  <path
     fill-rule="nonzero"
     fill="rgb(0%, 0%, 0%)"
     fill-opacity="1"
     d="M 308.023438 520.4375 C 305.535156 524.617188 303.117188 525.492188 300.40625 525.710938 C 299.601562 525.710938 299.085938 525.710938 299.085938 526.960938 C 299.085938 527.324219 299.378906 527.617188 299.894531 527.617188 C 301.578125 527.617188 303.480469 527.398438 305.242188 527.398438 C 307.289062 527.398438 309.492188 527.617188 311.46875 527.617188 C 311.835938 527.617188 312.640625 527.617188 312.640625 526.445312 C 312.640625 525.710938 312.054688 525.710938 311.617188 525.710938 C 310.222656 525.566406 308.757812 525.054688 308.757812 523.515625 C 308.757812 522.785156 309.125 522.050781 309.5625 521.171875 L 314.324219 513.257812 L 329.929688 513.257812 C 330.078125 514.503906 330.957031 523.003906 330.957031 523.664062 C 330.957031 525.492188 327.734375 525.710938 326.488281 525.710938 C 325.609375 525.710938 324.949219 525.710938 324.949219 526.960938 C 324.949219 527.617188 325.757812 527.617188 325.828125 527.617188 C 328.394531 527.617188 331.101562 527.398438 333.667969 527.398438 C 335.207031 527.398438 339.089844 527.617188 340.699219 527.617188 C 341.070312 527.617188 341.800781 527.617188 341.800781 526.371094 C 341.800781 525.710938 341.140625 525.710938 340.335938 525.710938 C 336.523438 525.710938 336.523438 525.273438 336.304688 523.445312 L 332.492188 484.539062 C 332.421875 483.292969 332.421875 483 331.320312 483 C 330.296875 483 330.078125 483.441406 329.710938 484.101562 Z M 315.496094 511.28125 L 327.804688 490.765625 L 329.785156 511.28125 Z M 315.496094 511.28125 "
     id="path3" />
  <path
     fill-rule="nonzero"
     fill="rgb(5.490196%, 41.960784%, 85.098039%)"
     fill-opacity="1"
     d="M 559.496094 320.261719 C 559.496094 246.851562 499.988281 187.34375 426.578125 187.34375 C 353.167969 187.34375 293.664062 246.851562 293.664062 320.261719 C 293.664062 393.671875 353.167969 453.179688 426.578125 453.179688 C 499.988281 453.179688 559.496094 393.671875 559.496094 320.261719 Z M 559.496094 320.261719 "
     id="path4" />
  <path
     fill-rule="nonzero"
     fill="rgb(0%, 0%, 0%)"
     fill-opacity="1"
     d="M 411.367188 336.710938 C 410.777344 339.125 410.632812 339.636719 405.726562 339.636719 C 404.625 339.636719 404.039062 339.636719 404.039062 340.882812 C 404.039062 341.542969 404.550781 341.542969 405.726562 341.542969 L 427.921875 341.542969 C 437.742188 341.542969 445.140625 334.214844 445.140625 328.0625 C 445.140625 323.59375 441.476562 320.003906 435.46875 319.34375 C 441.914062 318.101562 448.507812 313.484375 448.507812 307.621094 C 448.507812 303.007812 444.40625 298.976562 436.933594 298.976562 L 415.980469 298.976562 C 414.808594 298.976562 414.148438 298.976562 414.148438 300.222656 C 414.148438 300.953125 414.734375 300.953125 415.90625 300.953125 C 416.054688 300.953125 417.226562 300.953125 418.253906 301.027344 C 419.425781 301.175781 419.9375 301.246094 419.9375 302.054688 C 419.9375 302.273438 419.863281 302.492188 419.71875 303.226562 Z M 420.742188 318.757812 L 424.625 303.300781 C 425.210938 301.101562 425.285156 300.953125 427.996094 300.953125 L 436.054688 300.953125 C 441.476562 300.953125 442.796875 304.617188 442.796875 307.328125 C 442.796875 312.824219 437.445312 318.757812 429.828125 318.757812 Z M 417.960938 339.636719 C 417.082031 339.636719 417.007812 339.636719 416.566406 339.566406 C 415.980469 339.492188 415.761719 339.417969 415.761719 338.90625 C 415.761719 338.757812 415.761719 338.613281 416.128906 337.511719 L 420.378906 320.148438 L 432.171875 320.148438 C 438.179688 320.148438 439.351562 324.695312 439.351562 327.402344 C 439.351562 333.554688 433.785156 339.636719 426.457031 339.636719 Z M 417.960938 339.636719 "
     id="path5" />
  <path
     fill="none"
     stroke-width="0.3985"
     stroke-linecap="butt"
     stroke-linejoin="miter"
     stroke="rgb(0%, 0%, 0%)"
     stroke-opacity="1"
     stroke-miterlimit="10"
     d="M 42.520206 0.000128866 C 42.520206 23.483414 23.483656 42.519964 -0.000253827 42.519964 C -23.483539 42.519964 -42.520089 23.483414 -42.520089 0.000128866 C -42.520089 -23.483781 -23.483539 -42.520331 -0.000253827 -42.520331 C 23.483656 -42.520331 42.520206 -23.483781 42.520206 0.000128866 Z M 25.512397 12.756142 C 25.512397 24.498097 15.994122 34.016372 4.252167 34.016372 C -7.489788 34.016372 -17.007438 24.498097 -17.007438 12.756142 C -17.007438 1.014187 -7.489788 -8.504088 4.252167 -8.504088 C 15.994122 -8.504088 25.512397 1.014187 25.512397 12.756142 Z M 25.512397 12.756142 "
     transform="matrix(6.251954, 0, 0, -6.251954, 399.993774, 400.012524)"
     id="path6" />
</svg>
