<?xml version="1.0" encoding="UTF-8"?>
<svg xmlns="http://www.w3.org/2000/svg" xmlns:xlink="http://www.w3.org/1999/xlink" width="1000" height="750.586537" viewBox="0 0 1000 750.586537">
<defs>
<clipPath id="clip-0">
<path clip-rule="nonzero" d="M 125 125 L 625 125 L 625 625 L 125 625 Z M 125 125 "/>
</clipPath>
<clipPath id="clip-1">
<path clip-rule="nonzero" d="M 125.871094 624.71875 L 125.871094 125.890625 L 874.117188 125.890625 L 874.117188 624.71875 Z M 874.117188 375.304688 C 874.117188 237.554688 762.453125 125.890625 624.703125 125.890625 C 486.953125 125.890625 375.289062 237.554688 375.289062 375.304688 C 375.289062 513.054688 486.953125 624.71875 624.703125 624.71875 C 762.453125 624.71875 874.117188 513.054688 874.117188 375.304688 Z M 874.117188 375.304688 "/>
</clipPath>
</defs>
<path fill-rule="nonzero" fill="rgb(100%, 100%, 100%)" fill-opacity="1" stroke-width="0.3985" stroke-linecap="butt" stroke-linejoin="miter" stroke="rgb(0%, 0%, 0%)" stroke-opacity="1" stroke-miterlimit="10" d="M -63.780556 -63.780113 L -63.780556 63.780225 L 106.300561 63.780225 L 106.300561 -63.780113 Z M -63.780556 -63.780113 " transform="matrix(5.86579, 0, 0, -5.86579, 375.287428, 375.305016)"/>
<g clip-path="url(#clip-0)">
<g clip-path="url(#clip-1)">
<path fill-rule="nonzero" fill="rgb(92.156863%, 6.27451%, 6.27451%)" fill-opacity="1" d="M 624.703125 375.304688 C 624.703125 237.554688 513.035156 125.890625 375.289062 125.890625 C 237.539062 125.890625 125.871094 237.554688 125.871094 375.304688 C 125.871094 513.054688 237.539062 624.71875 375.289062 624.71875 C 513.035156 624.71875 624.703125 513.054688 624.703125 375.304688 Z M 624.703125 375.304688 "/>
</g>
</g>
<path fill-rule="nonzero" fill="rgb(0%, 0%, 0%)" fill-opacity="1" d="M 200.875 383.171875 C 198.539062 387.089844 196.269531 387.914062 193.726562 388.121094 C 192.96875 388.121094 192.488281 388.121094 192.488281 389.289062 C 192.488281 389.632812 192.761719 389.910156 193.246094 389.910156 C 194.824219 389.910156 196.613281 389.703125 198.261719 389.703125 C 200.1875 389.703125 202.25 389.910156 204.105469 389.910156 C 204.449219 389.910156 205.207031 389.910156 205.207031 388.808594 C 205.207031 388.121094 204.65625 388.121094 204.242188 388.121094 C 202.9375 387.984375 201.5625 387.503906 201.5625 386.058594 C 201.5625 385.371094 201.90625 384.683594 202.316406 383.859375 L 206.785156 376.4375 L 221.429688 376.4375 C 221.566406 377.605469 222.390625 385.578125 222.390625 386.195312 C 222.390625 387.914062 219.367188 388.121094 218.195312 388.121094 C 217.371094 388.121094 216.753906 388.121094 216.753906 389.289062 C 216.753906 389.910156 217.507812 389.910156 217.578125 389.910156 C 219.984375 389.910156 222.527344 389.703125 224.933594 389.703125 C 226.378906 389.703125 230.019531 389.910156 231.53125 389.910156 C 231.875 389.910156 232.5625 389.910156 232.5625 388.742188 C 232.5625 388.121094 231.945312 388.121094 231.1875 388.121094 C 227.613281 388.121094 227.613281 387.710938 227.410156 385.992188 L 223.832031 349.488281 C 223.765625 348.320312 223.765625 348.046875 222.734375 348.046875 C 221.773438 348.046875 221.566406 348.457031 221.222656 349.078125 Z M 207.886719 374.578125 L 219.433594 355.332031 L 221.289062 374.578125 Z M 207.886719 374.578125 "/>
<path fill-rule="nonzero" fill="rgb(0%, 0%, 0%)" fill-opacity="1" d="M 257.6875 403.105469 C 257.964844 403.933594 258.238281 404.550781 258.992188 404.550781 C 259.679688 404.550781 260.164062 404 260.164062 403.382812 C 260.164062 403.246094 260.164062 403.105469 259.886719 402.417969 L 239.882812 347.496094 C 239.539062 346.464844 239.402344 346.054688 238.648438 346.054688 C 237.960938 346.054688 237.480469 346.601562 237.480469 347.222656 C 237.480469 347.359375 237.480469 347.496094 237.753906 348.183594 Z M 257.6875 403.105469 "/>
<path fill-rule="nonzero" fill="rgb(0%, 0%, 0%)" fill-opacity="1" d="M 272.828125 385.371094 C 272.277344 387.640625 272.140625 388.121094 267.535156 388.121094 C 266.503906 388.121094 265.953125 388.121094 265.953125 389.289062 C 265.953125 389.910156 266.433594 389.910156 267.535156 389.910156 L 288.363281 389.910156 C 297.574219 389.910156 304.515625 383.035156 304.515625 377.261719 C 304.515625 373.066406 301.078125 369.699219 295.441406 369.082031 C 301.492188 367.914062 307.679688 363.582031 307.679688 358.082031 C 307.679688 353.75 303.828125 349.972656 296.816406 349.972656 L 277.160156 349.972656 C 276.058594 349.972656 275.441406 349.972656 275.441406 351.140625 C 275.441406 351.828125 275.988281 351.828125 277.089844 351.828125 C 277.226562 351.828125 278.328125 351.828125 279.289062 351.894531 C 280.390625 352.035156 280.871094 352.101562 280.871094 352.859375 C 280.871094 353.066406 280.800781 353.269531 280.664062 353.957031 Z M 281.625 368.53125 L 285.269531 354.027344 C 285.820312 351.964844 285.886719 351.828125 288.433594 351.828125 L 295.992188 351.828125 C 301.078125 351.828125 302.316406 355.265625 302.316406 357.808594 C 302.316406 362.964844 297.300781 368.53125 290.152344 368.53125 Z M 279.015625 388.121094 C 278.191406 388.121094 278.121094 388.121094 277.707031 388.054688 C 277.160156 387.984375 276.953125 387.914062 276.953125 387.433594 C 276.953125 387.296875 276.953125 387.160156 277.296875 386.128906 L 281.28125 369.835938 L 292.351562 369.835938 C 297.988281 369.835938 299.085938 374.097656 299.085938 376.640625 C 299.085938 382.417969 293.863281 388.121094 286.988281 388.121094 Z M 279.015625 388.121094 "/>
<path fill="none" stroke-width="0.3985" stroke-linecap="butt" stroke-linejoin="miter" stroke="rgb(0%, 0%, 0%)" stroke-opacity="1" stroke-miterlimit="10" d="M 42.520391 0.0000559661 C 42.520391 23.483678 23.483235 42.520169 0.000278636 42.520169 C -23.483343 42.520169 -42.5205 23.483678 -42.5205 0.0000559661 C -42.5205 -23.483566 -23.483343 -42.520057 0.000278636 -42.520057 C 23.483235 -42.520057 42.520391 -23.483566 42.520391 0.0000559661 Z M 85.040504 0.0000559661 C 85.040504 23.483678 66.004013 42.520169 42.520391 42.520169 C 19.03677 42.520169 0.000278636 23.483678 0.000278636 0.0000559661 C 0.000278636 -23.483566 19.03677 -42.520057 42.520391 -42.520057 C 66.004013 -42.520057 85.040504 -23.483566 85.040504 0.0000559661 Z M 85.040504 0.0000559661 " transform="matrix(5.86579, 0, 0, -5.86579, 375.287428, 375.305016)"/>
</svg>
