<?xml version="1.0" encoding="UTF-8"?>
<svg xmlns="http://www.w3.org/2000/svg" xmlns:xlink="http://www.w3.org/1999/xlink" width="1000" height="546.230641" viewBox="0 0 1000 546.230641">
<path fill-rule="nonzero" fill="rgb(100%, 100%, 100%)" fill-opacity="1" stroke-width="0.3985" stroke-linecap="butt" stroke-linejoin="miter" stroke="rgb(0%, 0%, 0%)" stroke-opacity="1" stroke-miterlimit="10" d="M -63.780434 -63.780302 L -63.780434 63.780687 L 170.080616 63.780687 L 170.080616 -63.780302 Z M -63.780434 -63.780302 " transform="matrix(4.268761, 0, 0, -4.268761, 273.11107, 273.12387)"/>
<path fill-rule="nonzero" fill="rgb(92.156863%, 6.27451%, 6.27451%)" fill-opacity="1" d="M 454.621094 273.125 C 454.621094 172.878906 373.355469 91.617188 273.109375 91.617188 C 172.867188 91.617188 91.601562 172.878906 91.601562 273.125 C 91.601562 373.371094 172.867188 454.632812 273.109375 454.632812 C 373.355469 454.632812 454.621094 373.371094 454.621094 273.125 Z M 454.621094 273.125 "/>
<path fill-rule="nonzero" fill="rgb(92.156863%, 6.27451%, 6.27451%)" fill-opacity="1" d="M 908.390625 273.125 C 908.390625 172.878906 827.128906 91.617188 726.882812 91.617188 C 626.636719 91.617188 545.375 172.878906 545.375 273.125 C 545.375 373.371094 626.636719 454.632812 726.882812 454.632812 C 827.128906 454.632812 908.390625 373.371094 908.390625 273.125 Z M 908.390625 273.125 "/>
<path fill="none" stroke-width="0.3985" stroke-linecap="butt" stroke-linejoin="miter" stroke="rgb(0%, 0%, 0%)" stroke-opacity="1" stroke-miterlimit="10" d="M 42.520542 -0.000264816 C 42.520542 23.483387 23.483255 42.51976 -0.000397144 42.51976 C -23.483134 42.51976 -42.520422 23.483387 -42.520422 -0.000264816 C -42.520422 -23.483917 -23.483134 -42.520289 -0.000397144 -42.520289 C 23.483255 -42.520289 42.520542 -23.483917 42.520542 -0.000264816 Z M 148.820604 -0.000264816 C 148.820604 23.483387 129.784231 42.51976 106.300579 42.51976 C 82.816927 42.51976 63.780555 23.483387 63.780555 -0.000264816 C 63.780555 -23.483917 82.816927 -42.520289 106.300579 -42.520289 C 129.784231 -42.520289 148.820604 -23.483917 148.820604 -0.000264816 Z M 148.820604 -0.000264816 " transform="matrix(4.268761, 0, 0, -4.268761, 273.11107, 273.12387)"/>
<path fill-rule="nonzero" fill="rgb(0%, 0%, 0%)" fill-opacity="1" d="M 223.949219 282.75 C 222.246094 285.601562 220.597656 286.203125 218.746094 286.351562 C 218.195312 286.351562 217.84375 286.351562 217.84375 287.203125 C 217.84375 287.453125 218.042969 287.652344 218.394531 287.652344 C 219.546875 287.652344 220.847656 287.503906 222.046875 287.503906 C 223.445312 287.503906 224.949219 287.652344 226.296875 287.652344 C 226.546875 287.652344 227.097656 287.652344 227.097656 286.851562 C 227.097656 286.351562 226.699219 286.351562 226.398438 286.351562 C 225.449219 286.253906 224.449219 285.902344 224.449219 284.851562 C 224.449219 284.351562 224.699219 283.851562 224.996094 283.25 L 228.25 277.847656 L 238.90625 277.847656 C 239.003906 278.699219 239.605469 284.503906 239.605469 284.953125 C 239.605469 286.203125 237.402344 286.351562 236.554688 286.351562 C 235.953125 286.351562 235.503906 286.351562 235.503906 287.203125 C 235.503906 287.652344 236.054688 287.652344 236.101562 287.652344 C 237.855469 287.652344 239.707031 287.503906 241.457031 287.503906 C 242.507812 287.503906 245.15625 287.652344 246.257812 287.652344 C 246.507812 287.652344 247.007812 287.652344 247.007812 286.804688 C 247.007812 286.351562 246.558594 286.351562 246.007812 286.351562 C 243.40625 286.351562 243.40625 286.054688 243.257812 284.800781 L 240.65625 258.238281 C 240.605469 257.390625 240.605469 257.1875 239.855469 257.1875 C 239.15625 257.1875 239.003906 257.488281 238.753906 257.9375 Z M 229.050781 276.5 L 237.453125 262.492188 L 238.804688 276.5 Z M 229.050781 276.5 "/>
<path fill-rule="nonzero" fill="rgb(0%, 0%, 0%)" fill-opacity="1" d="M 272.695312 275.546875 L 278.75 275.546875 C 279.398438 275.546875 280.25 275.546875 280.25 274.699219 C 280.25 273.847656 279.398438 273.847656 278.75 273.847656 L 272.695312 273.847656 L 272.695312 267.742188 C 272.695312 267.042969 272.695312 266.242188 271.847656 266.242188 C 270.996094 266.242188 270.996094 267.042969 270.996094 267.742188 L 270.996094 273.847656 L 264.941406 273.847656 C 264.34375 273.847656 263.441406 273.847656 263.441406 274.699219 C 263.441406 275.546875 264.34375 275.546875 264.941406 275.546875 L 270.996094 275.546875 L 270.996094 281.550781 C 270.996094 282.25 270.996094 283.050781 271.847656 283.050781 C 272.695312 283.050781 272.695312 282.199219 272.695312 281.550781 Z M 283.652344 263.742188 C 283.652344 262.992188 283.652344 262.242188 282.800781 262.242188 C 281.949219 262.242188 281.949219 262.992188 281.949219 263.742188 L 281.949219 279.148438 C 281.949219 285.503906 275.046875 286.902344 271.847656 286.902344 C 269.945312 286.902344 267.242188 286.503906 264.992188 285.050781 C 261.742188 282.953125 261.742188 280.25 261.742188 279.097656 L 261.742188 263.742188 C 261.742188 262.992188 261.742188 262.242188 260.890625 262.242188 C 260.039062 262.242188 260.039062 262.992188 260.039062 263.742188 L 260.039062 279.300781 C 260.039062 285.800781 266.542969 288.605469 271.847656 288.605469 C 277.398438 288.605469 283.652344 285.601562 283.652344 279.347656 Z M 283.652344 263.742188 "/>
<path fill-rule="nonzero" fill="rgb(0%, 0%, 0%)" fill-opacity="1" d="M 302.285156 284.351562 C 301.886719 286.003906 301.785156 286.351562 298.433594 286.351562 C 297.683594 286.351562 297.285156 286.351562 297.285156 287.203125 C 297.285156 287.652344 297.632812 287.652344 298.433594 287.652344 L 313.589844 287.652344 C 320.292969 287.652344 325.347656 282.652344 325.347656 278.449219 C 325.347656 275.398438 322.847656 272.945312 318.742188 272.496094 C 323.144531 271.644531 327.648438 268.496094 327.648438 264.492188 C 327.648438 261.339844 324.847656 258.589844 319.746094 258.589844 L 305.4375 258.589844 C 304.636719 258.589844 304.1875 258.589844 304.1875 259.441406 C 304.1875 259.941406 304.585938 259.941406 305.386719 259.941406 C 305.488281 259.941406 306.289062 259.941406 306.988281 259.988281 C 307.789062 260.089844 308.140625 260.140625 308.140625 260.691406 C 308.140625 260.839844 308.089844 260.992188 307.988281 261.492188 Z M 308.6875 272.097656 L 311.339844 261.539062 C 311.742188 260.039062 311.789062 259.941406 313.640625 259.941406 L 319.144531 259.941406 C 322.847656 259.941406 323.746094 262.441406 323.746094 264.292969 C 323.746094 268.042969 320.09375 272.097656 314.890625 272.097656 Z M 306.789062 286.351562 C 306.1875 286.351562 306.136719 286.351562 305.835938 286.304688 C 305.4375 286.253906 305.289062 286.203125 305.289062 285.851562 C 305.289062 285.753906 305.289062 285.652344 305.539062 284.902344 L 308.4375 273.046875 L 316.492188 273.046875 C 320.59375 273.046875 321.394531 276.148438 321.394531 278 C 321.394531 282.199219 317.59375 286.351562 312.589844 286.351562 Z M 306.789062 286.351562 "/>
</svg>
