<?xml version="1.0" encoding="UTF-8" standalone="no"?>
<svg
   width="1000"
   height="750.586537"
   viewBox="0 0 1000 750.586537"
   version="1.1"
   id="svg9"
   sodipodi:docname="intersection_venn_diagram.svg"
   inkscape:version="1.3.2 (091e20e, 2023-11-25, custom)"
   xmlns:inkscape="http://www.inkscape.org/namespaces/inkscape"
   xmlns:sodipodi="http://sodipodi.sourceforge.net/DTD/sodipodi-0.dtd"
   xmlns="http://www.w3.org/2000/svg"
   xmlns:svg="http://www.w3.org/2000/svg">
  <sodipodi:namedview
     id="namedview9"
     pagecolor="#505050"
     bordercolor="#ffffff"
     borderopacity="1"
     inkscape:showpageshadow="0"
     inkscape:pageopacity="0"
     inkscape:pagecheckerboard="1"
     inkscape:deskcolor="#505050"
     inkscape:zoom="0.67670119"
     inkscape:cx="415.98863"
     inkscape:cy="466.23237"
     inkscape:window-width="1920"
     inkscape:window-height="1009"
     inkscape:window-x="1072"
     inkscape:window-y="468"
     inkscape:window-maximized="1"
     inkscape:current-layer="svg9" />
  <defs
     id="defs2">
    <clipPath
       id="clip-0">
      <path
         clip-rule="nonzero"
         d="M 499.996094 125.890625 L 624.703125 125.890625 L 624.703125 624.71875 L 499.996094 624.71875 Z M 499.996094 125.890625 "
         id="path1" />
    </clipPath>
    <clipPath
       id="clip-1">
      <path
         clip-rule="nonzero"
         d="M 375.289062 125.890625 L 499.996094 125.890625 L 499.996094 624.71875 L 375.289062 624.71875 Z M 375.289062 125.890625 "
         id="path2" />
    </clipPath>
  </defs>
  <path
     fill="none"
     stroke-width="0.3985"
     stroke-linecap="butt"
     stroke-linejoin="miter"
     stroke="rgb(0%, 0%, 0%)"
     stroke-opacity="1"
     stroke-miterlimit="10"
     d="M -63.780556 -63.780113 L -63.780556 63.780225 L 106.300561 63.780225 L 106.300561 -63.780113 Z M -63.780556 -63.780113 "
     transform="matrix(5.86579, 0, 0, -5.86579, 375.287428, 375.305016)"
     id="path3"
     style="fill:#ffffff;fill-opacity:1" />
  <g
     clip-path="url(#clip-0)"
     id="g4">
    <path
       fill-rule="nonzero"
       fill="rgb(92.156863%, 6.27451%, 6.27451%)"
       fill-opacity="1"
       d="M 624.703125 375.304688 C 624.703125 237.554688 513.035156 125.890625 375.289062 125.890625 C 237.539062 125.890625 125.871094 237.554688 125.871094 375.304688 C 125.871094 513.054688 237.539062 624.71875 375.289062 624.71875 C 513.035156 624.71875 624.703125 513.054688 624.703125 375.304688 Z M 624.703125 375.304688 "
       id="path4" />
  </g>
  <g
     clip-path="url(#clip-1)"
     id="g5">
    <path
       fill-rule="nonzero"
       fill="rgb(92.156863%, 6.27451%, 6.27451%)"
       fill-opacity="1"
       d="M 874.117188 375.304688 C 874.117188 237.554688 762.453125 125.890625 624.703125 125.890625 C 486.953125 125.890625 375.289062 237.554688 375.289062 375.304688 C 375.289062 513.054688 486.953125 624.71875 624.703125 624.71875 C 762.453125 624.71875 874.117188 513.054688 874.117188 375.304688 Z M 874.117188 375.304688 "
       id="path5" />
  </g>
  <path
     fill="none"
     stroke-width="0.3985"
     stroke-linecap="butt"
     stroke-linejoin="miter"
     stroke="rgb(0%, 0%, 0%)"
     stroke-opacity="1"
     stroke-miterlimit="10"
     d="M 42.520391 0.0000559661 C 42.520391 23.483678 23.483235 42.520169 0.000278636 42.520169 C -23.483343 42.520169 -42.5205 23.483678 -42.5205 0.0000559661 C -42.5205 -23.483566 -23.483343 -42.520057 0.000278636 -42.520057 C 23.483235 -42.520057 42.520391 -23.483566 42.520391 0.0000559661 Z M 85.040504 0.0000559661 C 85.040504 23.483678 66.004013 42.520169 42.520391 42.520169 C 19.03677 42.520169 0.000278636 23.483678 0.000278636 0.0000559661 C 0.000278636 -23.483566 19.03677 -42.520057 42.520391 -42.520057 C 66.004013 -42.520057 85.040504 -23.483566 85.040504 0.0000559661 Z M 85.040504 0.0000559661 "
     transform="matrix(5.86579, 0, 0, -5.86579, 375.287428, 375.305016)"
     id="path6" />
  <path
     fill-rule="nonzero"
     fill="rgb(0%, 0%, 0%)"
     fill-opacity="1"
     d="M 432.441406 388.535156 C 430.105469 392.453125 427.835938 393.277344 425.292969 393.484375 C 424.535156 393.484375 424.054688 393.484375 424.054688 394.652344 C 424.054688 394.996094 424.332031 395.269531 424.8125 395.269531 C 426.390625 395.269531 428.179688 395.0625 429.828125 395.0625 C 431.753906 395.0625 433.816406 395.269531 435.671875 395.269531 C 436.015625 395.269531 436.773438 395.269531 436.773438 394.171875 C 436.773438 393.484375 436.222656 393.484375 435.808594 393.484375 C 434.503906 393.347656 433.128906 392.863281 433.128906 391.421875 C 433.128906 390.734375 433.472656 390.046875 433.886719 389.222656 L 438.351562 381.796875 L 452.996094 381.796875 C 453.132812 382.964844 453.957031 390.941406 453.957031 391.558594 C 453.957031 393.277344 450.933594 393.484375 449.765625 393.484375 C 448.9375 393.484375 448.320312 393.484375 448.320312 394.652344 C 448.320312 395.269531 449.078125 395.269531 449.144531 395.269531 C 451.550781 395.269531 454.09375 395.0625 456.5 395.0625 C 457.945312 395.0625 461.585938 395.269531 463.097656 395.269531 C 463.441406 395.269531 464.128906 395.269531 464.128906 394.101562 C 464.128906 393.484375 463.511719 393.484375 462.757812 393.484375 C 459.179688 393.484375 459.179688 393.070312 458.976562 391.351562 L 455.402344 354.851562 C 455.332031 353.683594 455.332031 353.40625 454.300781 353.40625 C 453.339844 353.40625 453.132812 353.820312 452.789062 354.4375 Z M 439.453125 379.941406 L 451 360.695312 L 452.855469 379.941406 Z M 439.453125 379.941406 "
     id="path7" />
  <path
     fill-rule="nonzero"
     fill="rgb(0%, 0%, 0%)"
     fill-opacity="1"
     d="M 514.484375 373.066406 C 514.484375 364.199219 505.546875 360.351562 498.261719 360.351562 C 490.699219 360.351562 482.039062 364.40625 482.039062 373 L 482.039062 394.445312 C 482.039062 395.476562 482.039062 396.578125 483.207031 396.578125 C 484.375 396.578125 484.375 395.476562 484.375 394.445312 L 484.375 373.273438 C 484.375 364.542969 493.859375 362.6875 498.261719 362.6875 C 500.871094 362.6875 504.585938 363.167969 507.675781 365.164062 C 512.144531 368.050781 512.144531 371.761719 512.144531 373.34375 L 512.144531 394.445312 C 512.144531 395.476562 512.144531 396.578125 513.3125 396.578125 C 514.484375 396.578125 514.484375 395.476562 514.484375 394.445312 Z M 514.484375 373.066406 "
     id="path8" />
  <path
     fill-rule="nonzero"
     fill="rgb(0%, 0%, 0%)"
     fill-opacity="1"
     d="M 540.089844 390.734375 C 539.539062 393.003906 539.402344 393.484375 534.796875 393.484375 C 533.765625 393.484375 533.214844 393.484375 533.214844 394.652344 C 533.214844 395.269531 533.695312 395.269531 534.796875 395.269531 L 555.625 395.269531 C 564.835938 395.269531 571.777344 388.398438 571.777344 382.621094 C 571.777344 378.429688 568.339844 375.0625 562.703125 374.441406 C 568.753906 373.273438 574.9375 368.941406 574.9375 363.445312 C 574.9375 359.113281 571.089844 355.332031 564.078125 355.332031 L 544.417969 355.332031 C 543.320312 355.332031 542.699219 355.332031 542.699219 356.5 C 542.699219 357.1875 543.25 357.1875 544.351562 357.1875 C 544.488281 357.1875 545.585938 357.1875 546.550781 357.257812 C 547.648438 357.394531 548.128906 357.464844 548.128906 358.21875 C 548.128906 358.425781 548.0625 358.632812 547.925781 359.320312 Z M 548.886719 373.894531 L 552.53125 359.386719 C 553.078125 357.328125 553.148438 357.1875 555.691406 357.1875 L 563.253906 357.1875 C 568.339844 357.1875 569.578125 360.625 569.578125 363.167969 C 569.578125 368.324219 564.558594 373.894531 557.410156 373.894531 Z M 546.273438 393.484375 C 545.449219 393.484375 545.382812 393.484375 544.96875 393.414062 C 544.417969 393.347656 544.210938 393.277344 544.210938 392.796875 C 544.210938 392.660156 544.210938 392.519531 544.554688 391.488281 L 548.542969 375.199219 L 559.609375 375.199219 C 565.246094 375.199219 566.347656 379.460938 566.347656 382.003906 C 566.347656 387.777344 561.121094 393.484375 554.25 393.484375 Z M 546.273438 393.484375 "
     id="path9" />
</svg>
