<?xml version="1.0" encoding="UTF-8"?>
<svg xmlns="http://www.w3.org/2000/svg" xmlns:xlink="http://www.w3.org/1999/xlink" width="1000" height="750.586548" viewBox="0 0 1000 750.586548">
<defs>
<clipPath id="clip-0">
<path clip-rule="nonzero" d="M 125 125 L 625 125 L 625 625 L 125 625 Z M 125 125 "/>
</clipPath>
<clipPath id="clip-1">
<path clip-rule="nonzero" d="M 125.875 624.722656 L 125.875 125.890625 L 874.117188 125.890625 L 874.117188 624.722656 Z M 874.117188 375.304688 C 874.117188 237.554688 762.453125 125.890625 624.703125 125.890625 C 486.953125 125.890625 375.289062 237.554688 375.289062 375.304688 C 375.289062 513.054688 486.953125 624.722656 624.703125 624.722656 C 762.453125 624.722656 874.117188 513.054688 874.117188 375.304688 Z M 874.117188 375.304688 "/>
</clipPath>
<clipPath id="clip-2">
<path clip-rule="nonzero" d="M 375 125 L 875 125 L 875 625 L 375 625 Z M 375 125 "/>
</clipPath>
<clipPath id="clip-3">
<path clip-rule="nonzero" d="M 125.875 624.722656 L 125.875 125.890625 L 874.117188 125.890625 L 874.117188 624.722656 Z M 624.703125 375.304688 C 624.703125 237.554688 513.039062 125.890625 375.289062 125.890625 C 237.539062 125.890625 125.875 237.554688 125.875 375.304688 C 125.875 513.054688 237.539062 624.722656 375.289062 624.722656 C 513.039062 624.722656 624.703125 513.054688 624.703125 375.304688 Z M 624.703125 375.304688 "/>
</clipPath>
</defs>
<path fill-rule="nonzero" fill="rgb(100%, 100%, 100%)" fill-opacity="1" stroke-width="0.3985" stroke-linecap="butt" stroke-linejoin="miter" stroke="rgb(0%, 0%, 0%)" stroke-opacity="1" stroke-miterlimit="10" d="M -63.779892 -63.780778 L -63.779892 63.780226 L 106.300559 63.780226 L 106.300559 -63.780778 Z M -63.779892 -63.780778 " transform="matrix(5.86579, 0, 0, -5.86579, 375.287437, 375.305023)"/>
<g clip-path="url(#clip-0)">
<g clip-path="url(#clip-1)">
<path fill-rule="nonzero" fill="rgb(92.156863%, 6.27451%, 6.27451%)" fill-opacity="1" d="M 624.703125 375.304688 C 624.703125 237.554688 513.039062 125.890625 375.289062 125.890625 C 237.539062 125.890625 125.875 237.554688 125.875 375.304688 C 125.875 513.054688 237.539062 624.722656 375.289062 624.722656 C 513.039062 624.722656 624.703125 513.054688 624.703125 375.304688 Z M 624.703125 375.304688 "/>
</g>
</g>
<path fill-rule="nonzero" fill="rgb(0%, 0%, 0%)" fill-opacity="1" d="M 189.515625 383.171875 C 187.179688 387.089844 184.914062 387.914062 182.367188 388.121094 C 181.609375 388.121094 181.128906 388.121094 181.128906 389.292969 C 181.128906 389.632812 181.40625 389.90625 181.882812 389.90625 C 183.46875 389.90625 185.253906 389.703125 186.90625 389.703125 C 188.828125 389.703125 190.890625 389.90625 192.742188 389.90625 C 193.089844 389.90625 193.847656 389.90625 193.847656 388.808594 C 193.847656 388.121094 193.296875 388.121094 192.886719 388.121094 C 191.578125 387.984375 190.203125 387.503906 190.203125 386.058594 C 190.203125 385.371094 190.546875 384.683594 190.957031 383.863281 L 195.425781 376.4375 L 210.070312 376.4375 C 210.203125 377.601562 211.03125 385.578125 211.03125 386.195312 C 211.03125 387.914062 208.007812 388.121094 206.835938 388.121094 C 206.011719 388.121094 205.394531 388.121094 205.394531 389.292969 C 205.394531 389.90625 206.152344 389.90625 206.21875 389.90625 C 208.625 389.90625 211.167969 389.703125 213.574219 389.703125 C 215.019531 389.703125 218.664062 389.90625 220.175781 389.90625 C 220.515625 389.90625 221.207031 389.90625 221.207031 388.742188 C 221.207031 388.121094 220.585938 388.121094 219.828125 388.121094 C 216.253906 388.121094 216.253906 387.710938 216.050781 385.992188 L 212.476562 349.492188 C 212.40625 348.320312 212.40625 348.046875 211.375 348.046875 C 210.410156 348.046875 210.203125 348.457031 209.863281 349.078125 Z M 196.527344 374.578125 L 208.078125 355.332031 L 209.929688 374.578125 Z M 196.527344 374.578125 "/>
<path fill-rule="nonzero" fill="rgb(0%, 0%, 0%)" fill-opacity="1" d="M 250.109375 349.214844 C 249.695312 348.457031 249.5625 348.046875 248.804688 348.046875 C 248.183594 348.046875 248.046875 348.320312 247.570312 349.214844 L 226.804688 387.640625 C 226.324219 388.398438 226.324219 388.535156 226.324219 388.742188 C 226.324219 389.90625 227.5625 389.90625 228.457031 389.90625 L 269.289062 389.90625 C 270.25 389.90625 271.347656 389.90625 271.347656 388.742188 C 271.347656 388.46875 271.210938 388.257812 271.007812 387.777344 Z M 248.804688 351.6875 L 268.257812 387.574219 L 229.417969 387.574219 Z M 248.804688 351.6875 "/>
<path fill-rule="nonzero" fill="rgb(0%, 0%, 0%)" fill-opacity="1" d="M 284.1875 385.371094 C 283.636719 387.640625 283.5 388.121094 278.898438 388.121094 C 277.859375 388.121094 277.3125 388.121094 277.3125 389.292969 C 277.3125 389.90625 277.792969 389.90625 278.898438 389.90625 L 299.722656 389.90625 C 308.9375 389.90625 315.875 383.039062 315.875 377.261719 C 315.875 373.066406 312.441406 369.695312 306.800781 369.082031 C 312.851562 367.910156 319.039062 363.585938 319.039062 358.082031 C 319.039062 353.75 315.191406 349.96875 308.179688 349.96875 L 288.515625 349.96875 C 287.417969 349.96875 286.800781 349.96875 286.800781 351.136719 C 286.800781 351.828125 287.347656 351.828125 288.445312 351.828125 C 288.589844 351.828125 289.6875 351.828125 290.648438 351.894531 C 291.75 352.03125 292.230469 352.105469 292.230469 352.855469 C 292.230469 353.066406 292.164062 353.273438 292.023438 353.960938 Z M 292.988281 368.53125 L 296.632812 354.027344 C 297.179688 351.960938 297.246094 351.828125 299.789062 351.828125 L 307.351562 351.828125 C 312.441406 351.828125 313.675781 355.265625 313.675781 357.808594 C 313.675781 362.964844 308.65625 368.53125 301.507812 368.53125 Z M 290.375 388.121094 C 289.550781 388.121094 289.484375 388.121094 289.066406 388.050781 C 288.515625 387.984375 288.3125 387.914062 288.3125 387.4375 C 288.3125 387.296875 288.3125 387.15625 288.65625 386.128906 L 292.640625 369.839844 L 303.710938 369.839844 C 309.34375 369.839844 310.445312 374.097656 310.445312 376.640625 C 310.445312 382.417969 305.21875 388.121094 298.351562 388.121094 Z M 290.375 388.121094 "/>
<g clip-path="url(#clip-2)">
<g clip-path="url(#clip-3)">
<path fill-rule="nonzero" fill="rgb(92.156863%, 6.27451%, 6.27451%)" fill-opacity="1" d="M 874.117188 375.304688 C 874.117188 237.554688 762.453125 125.890625 624.703125 125.890625 C 486.953125 125.890625 375.289062 237.554688 375.289062 375.304688 C 375.289062 513.054688 486.953125 624.722656 624.703125 624.722656 C 762.453125 624.722656 874.117188 513.054688 874.117188 375.304688 Z M 874.117188 375.304688 "/>
</g>
</g>
<path fill="none" stroke-width="0.3985" stroke-linecap="butt" stroke-linejoin="miter" stroke="rgb(0%, 0%, 0%)" stroke-opacity="1" stroke-miterlimit="10" d="M 42.52039 0.000057229 C 42.52039 23.483679 23.483899 42.52017 0.00027704 42.52017 C -23.483345 42.52017 -42.519836 23.483679 -42.519836 0.000057229 C -42.519836 -23.484231 -23.483345 -42.520721 0.00027704 -42.520721 C 23.483899 -42.520721 42.52039 -23.484231 42.52039 0.000057229 Z M 85.040502 0.000057229 C 85.040502 23.483679 66.004012 42.52017 42.52039 42.52017 C 19.036768 42.52017 0.00027704 23.483679 0.00027704 0.000057229 C 0.00027704 -23.484231 19.036768 -42.520721 42.52039 -42.520721 C 66.004012 -42.520721 85.040502 -23.484231 85.040502 0.000057229 Z M 85.040502 0.000057229 " transform="matrix(5.86579, 0, 0, -5.86579, 375.287437, 375.305023)"/>
</svg>
