<?xml version="1.0" encoding="UTF-8"?>
<svg xmlns="http://www.w3.org/2000/svg" xmlns:xlink="http://www.w3.org/1999/xlink" width="1000" height="750.586537" viewBox="0 0 1000 750.586537">
<path fill-rule="nonzero" fill="rgb(100%, 100%, 100%)" fill-opacity="1" stroke-width="0.3985" stroke-linecap="butt" stroke-linejoin="miter" stroke="rgb(0%, 0%, 0%)" stroke-opacity="1" stroke-miterlimit="10" d="M -63.780556 -63.780113 L -63.780556 63.780225 L 106.300561 63.780225 L 106.300561 -63.780113 Z M -63.780556 -63.780113 " transform="matrix(5.86579, 0, 0, -5.86579, 375.287428, 375.305016)"/>
<path fill-rule="nonzero" fill="rgb(0%, 0%, 0%)" fill-opacity="1" d="M 83.605469 78.65625 C 82.296875 83.605469 80.238281 90.824219 80.238281 95.359375 C 80.238281 96.941406 81.199219 97.628906 82.640625 97.628906 C 84.980469 97.628906 89.308594 95.085938 89.308594 93.914062 C 89.308594 93.640625 89.035156 93.503906 88.761719 93.503906 C 88.074219 93.503906 86.972656 94.054688 86.355469 94.398438 C 85.597656 94.257812 85.1875 93.710938 85.1875 92.882812 C 85.1875 85.734375 91.851562 65.320312 93.570312 60.988281 C 94.257812 59.339844 95.015625 56.933594 95.015625 56.453125 C 95.015625 56.039062 94.671875 56.039062 94.398438 56.039062 C 93.160156 56.039062 90.546875 57.621094 90.066406 58.789062 C 89.308594 60.78125 89.242188 61.125 88.484375 63.257812 C 86.558594 68.824219 80.785156 78.449219 75.011719 85.253906 C 73.226562 87.246094 67.449219 94.054688 63.328125 94.054688 C 60.507812 94.054688 58.789062 91.648438 58.789062 87.796875 C 58.789062 83.671875 61.058594 78.449219 64.5625 70.476562 C 66.695312 65.664062 68.414062 61.46875 68.414062 58.859375 C 68.414062 56.109375 66.558594 56.039062 65.527344 56.039062 C 60.988281 56.039062 55.421875 59.683594 55.421875 60.921875 C 55.421875 61.265625 55.765625 61.265625 56.039062 61.265625 C 56.726562 61.265625 57.757812 60.78125 58.722656 60.164062 C 59.132812 59.890625 60.097656 59.269531 61.609375 59.269531 C 62.914062 59.269531 63.464844 60.097656 63.464844 61.402344 C 63.464844 63.945312 61.332031 68.757812 58.925781 74.324219 C 55.007812 83.125 53.839844 86.835938 53.839844 90.273438 C 53.839844 94.121094 55.351562 97.285156 59.476562 97.285156 C 63.121094 97.285156 68.414062 94.878906 74.394531 89.308594 C 78.378906 85.53125 81.0625 82.023438 83.535156 78.65625 Z M 83.605469 78.65625 "/>
<path fill-rule="nonzero" fill="rgb(92.156863%, 6.27451%, 6.27451%)" fill-opacity="1" d="M 624.703125 375.304688 C 624.703125 237.554688 513.035156 125.890625 375.289062 125.890625 C 237.539062 125.890625 125.871094 237.554688 125.871094 375.304688 C 125.871094 513.054688 237.539062 624.71875 375.289062 624.71875 C 513.035156 624.71875 624.703125 513.054688 624.703125 375.304688 Z M 624.703125 375.304688 "/>
<path fill-rule="nonzero" fill="rgb(92.156863%, 6.27451%, 6.27451%)" fill-opacity="1" d="M 874.117188 375.304688 C 874.117188 237.554688 762.453125 125.890625 624.703125 125.890625 C 486.953125 125.890625 375.289062 237.554688 375.289062 375.304688 C 375.289062 513.054688 486.953125 624.71875 624.703125 624.71875 C 762.453125 624.71875 874.117188 513.054688 874.117188 375.304688 Z M 874.117188 375.304688 "/>
<path fill="none" stroke-width="0.3985" stroke-linecap="butt" stroke-linejoin="miter" stroke="rgb(0%, 0%, 0%)" stroke-opacity="1" stroke-miterlimit="10" d="M 42.520391 0.0000559661 C 42.520391 23.483678 23.483235 42.520169 0.000278636 42.520169 C -23.483343 42.520169 -42.5205 23.483678 -42.5205 0.0000559661 C -42.5205 -23.483566 -23.483343 -42.520057 0.000278636 -42.520057 C 23.483235 -42.520057 42.520391 -23.483566 42.520391 0.0000559661 Z M 85.040504 0.0000559661 C 85.040504 23.483678 66.004013 42.520169 42.520391 42.520169 C 19.03677 42.520169 0.000278636 23.483678 0.000278636 0.0000559661 C 0.000278636 -23.483566 19.03677 -42.520057 42.520391 -42.520057 C 66.004013 -42.520057 85.040504 -23.483566 85.040504 0.0000559661 Z M 85.040504 0.0000559661 " transform="matrix(5.86579, 0, 0, -5.86579, 375.287428, 375.305016)"/>
<path fill-rule="nonzero" fill="rgb(0%, 0%, 0%)" fill-opacity="1" d="M 432.441406 388.535156 C 430.105469 392.453125 427.835938 393.277344 425.292969 393.484375 C 424.535156 393.484375 424.054688 393.484375 424.054688 394.652344 C 424.054688 394.996094 424.332031 395.269531 424.8125 395.269531 C 426.390625 395.269531 428.179688 395.0625 429.828125 395.0625 C 431.753906 395.0625 433.816406 395.269531 435.671875 395.269531 C 436.015625 395.269531 436.773438 395.269531 436.773438 394.171875 C 436.773438 393.484375 436.222656 393.484375 435.808594 393.484375 C 434.503906 393.347656 433.128906 392.863281 433.128906 391.421875 C 433.128906 390.734375 433.472656 390.046875 433.886719 389.222656 L 438.351562 381.796875 L 452.996094 381.796875 C 453.132812 382.964844 453.957031 390.941406 453.957031 391.558594 C 453.957031 393.277344 450.933594 393.484375 449.765625 393.484375 C 448.9375 393.484375 448.320312 393.484375 448.320312 394.652344 C 448.320312 395.269531 449.078125 395.269531 449.144531 395.269531 C 451.550781 395.269531 454.09375 395.0625 456.5 395.0625 C 457.945312 395.0625 461.585938 395.269531 463.097656 395.269531 C 463.441406 395.269531 464.128906 395.269531 464.128906 394.101562 C 464.128906 393.484375 463.511719 393.484375 462.757812 393.484375 C 459.179688 393.484375 459.179688 393.070312 458.976562 391.351562 L 455.402344 354.851562 C 455.332031 353.683594 455.332031 353.40625 454.300781 353.40625 C 453.339844 353.40625 453.132812 353.820312 452.789062 354.4375 Z M 439.453125 379.941406 L 451 360.695312 L 452.855469 379.941406 Z M 439.453125 379.941406 "/>
<path fill-rule="nonzero" fill="rgb(0%, 0%, 0%)" fill-opacity="1" d="M 514.484375 362.414062 C 514.484375 361.382812 514.484375 360.351562 513.3125 360.351562 C 512.144531 360.351562 512.144531 361.382812 512.144531 362.414062 L 512.144531 383.585938 C 512.144531 392.316406 502.660156 394.238281 498.261719 394.238281 C 495.648438 394.238281 491.9375 393.691406 488.84375 391.695312 C 484.375 388.808594 484.375 385.097656 484.375 383.515625 L 484.375 362.414062 C 484.375 361.382812 484.375 360.351562 483.207031 360.351562 C 482.039062 360.351562 482.039062 361.382812 482.039062 362.414062 L 482.039062 383.792969 C 482.039062 392.726562 490.972656 396.578125 498.261719 396.578125 C 505.890625 396.578125 514.484375 392.453125 514.484375 383.859375 Z M 514.484375 362.414062 "/>
<path fill-rule="nonzero" fill="rgb(0%, 0%, 0%)" fill-opacity="1" d="M 540.089844 390.734375 C 539.539062 393.003906 539.402344 393.484375 534.796875 393.484375 C 533.765625 393.484375 533.214844 393.484375 533.214844 394.652344 C 533.214844 395.269531 533.695312 395.269531 534.796875 395.269531 L 555.625 395.269531 C 564.835938 395.269531 571.777344 388.398438 571.777344 382.621094 C 571.777344 378.429688 568.339844 375.0625 562.703125 374.441406 C 568.753906 373.273438 574.9375 368.941406 574.9375 363.445312 C 574.9375 359.113281 571.089844 355.332031 564.078125 355.332031 L 544.417969 355.332031 C 543.320312 355.332031 542.699219 355.332031 542.699219 356.5 C 542.699219 357.1875 543.25 357.1875 544.351562 357.1875 C 544.488281 357.1875 545.585938 357.1875 546.550781 357.257812 C 547.648438 357.394531 548.128906 357.464844 548.128906 358.21875 C 548.128906 358.425781 548.0625 358.632812 547.925781 359.320312 Z M 548.886719 373.894531 L 552.53125 359.386719 C 553.078125 357.328125 553.148438 357.1875 555.691406 357.1875 L 563.253906 357.1875 C 568.339844 357.1875 569.578125 360.625 569.578125 363.167969 C 569.578125 368.324219 564.558594 373.894531 557.410156 373.894531 Z M 546.273438 393.484375 C 545.449219 393.484375 545.382812 393.484375 544.96875 393.414062 C 544.417969 393.347656 544.210938 393.277344 544.210938 392.796875 C 544.210938 392.660156 544.210938 392.519531 544.554688 391.488281 L 548.542969 375.199219 L 559.609375 375.199219 C 565.246094 375.199219 566.347656 379.460938 566.347656 382.003906 C 566.347656 387.777344 561.121094 393.484375 554.25 393.484375 Z M 546.273438 393.484375 "/>
</svg>
